<svg width="100%" height="100%" viewBox="0 0 420 180" version="1.1" xmlns="http://www.w3.org/2000/svg" xmlns:xlink="http://www.w3.org/1999/xlink" xml:space="preserve" xmlns:serif="http://www.serif.com/" style="fill-rule:evenodd;clip-rule:evenodd;stroke-linejoin:round;stroke-miterlimit:2;">
    <g transform="matrix(1,0,0,1,-896.708,-160)">
        <g transform="matrix(1.00467,0,0,1.00467,707.282,48.0532)">
            <rect x="188.544" y="131.333" width="19.907" height="19.907"/>
        </g>
        <g transform="matrix(1.00467,0,0,1.00467,847.282,48.0532)">
            <rect x="188.544" y="131.333" width="19.907" height="19.907"/>
        </g>
        <g transform="matrix(1.00467,0,0,1.00467,987.282,48.0532)">
            <rect x="188.544" y="131.333" width="19.907" height="19.907"/>
        </g>
        <g transform="matrix(1.00467,0,0,1.00467,707.282,68.0532)">
            <rect x="188.544" y="131.333" width="19.907" height="19.907" style="fill:rgb(255,0,17);"/>
        </g>
        <g transform="matrix(1.00467,0,0,1.00467,847.282,68.0532)">
            <rect x="188.544" y="131.333" width="19.907" height="19.907" style="fill:rgb(255,0,17);"/>
        </g>
        <g transform="matrix(1.00467,0,0,1.00467,987.282,68.0532)">
            <rect x="188.544" y="131.333" width="19.907" height="19.907" style="fill:rgb(255,0,17);"/>
        </g>
        <g transform="matrix(1.00467,0,0,1.00467,707.282,88.0532)">
            <rect x="188.544" y="131.333" width="19.907" height="19.907"/>
        </g>
        <g transform="matrix(1.00467,0,0,1.00467,847.282,88.0532)">
            <rect x="188.544" y="131.333" width="19.907" height="19.907" style="fill:rgb(255,0,17);"/>
        </g>
        <g transform="matrix(1.00467,0,0,1.00467,987.282,88.0532)">
            <rect x="188.544" y="131.333" width="19.907" height="19.907" style="fill:rgb(255,0,17);"/>
        </g>
        <g transform="matrix(1.00467,0,0,1.00467,847.282,108.053)">
            <rect x="188.544" y="131.333" width="19.907" height="19.907" style="fill:rgb(255,0,17);"/>
        </g>
        <g transform="matrix(1.00467,0,0,1.00467,987.282,108.053)">
            <rect x="188.544" y="131.333" width="19.907" height="19.907" style="fill:rgb(255,0,17);"/>
        </g>
        <g transform="matrix(1.00467,0,0,1.00467,847.282,128.053)">
            <rect x="188.544" y="131.333" width="19.907" height="19.907" style="fill:rgb(255,0,17);"/>
        </g>
        <g transform="matrix(1.00467,0,0,1.00467,987.282,128.053)">
            <rect x="188.544" y="131.333" width="19.907" height="19.907" style="fill:rgb(255,0,17);"/>
        </g>
        <g transform="matrix(1.00467,0,0,1.00467,707.282,148.053)">
            <rect x="188.544" y="131.333" width="19.907" height="19.907"/>
        </g>
        <g transform="matrix(1.00467,0,0,1.00467,847.282,148.053)">
            <rect x="188.544" y="131.333" width="19.907" height="19.907" style="fill:rgb(255,0,17);"/>
        </g>
        <g transform="matrix(1.00467,0,0,1.00467,987.282,148.053)">
            <rect x="188.544" y="131.333" width="19.907" height="19.907" style="fill:rgb(255,0,17);"/>
        </g>
        <g transform="matrix(1.00467,0,0,1.00467,707.282,168.053)">
            <rect x="188.544" y="131.333" width="19.907" height="19.907" style="fill:rgb(255,0,17);"/>
        </g>
        <g transform="matrix(1.00467,0,0,1.00467,847.282,168.053)">
            <rect x="188.544" y="131.333" width="19.907" height="19.907"/>
        </g>
        <g transform="matrix(1.00467,0,0,1.00467,987.282,168.053)">
            <rect x="188.544" y="131.333" width="19.907" height="19.907"/>
        </g>
        <g transform="matrix(1.00467,0,0,1.00467,707.282,188.053)">
            <rect x="188.544" y="131.333" width="19.907" height="19.907"/>
        </g>
        <g transform="matrix(1.00467,0,0,1.00467,727.282,28.0532)">
            <rect x="188.544" y="131.333" width="19.907" height="19.907"/>
        </g>
        <g transform="matrix(1.00467,0,0,1.00467,867.282,28.0532)">
            <rect x="188.544" y="131.333" width="19.907" height="19.907"/>
        </g>
        <g transform="matrix(1.00467,0,0,1.00467,1007.28,28.0532)">
            <rect x="188.544" y="131.333" width="19.907" height="19.907"/>
        </g>
        <g transform="matrix(1.00467,0,0,1.00467,727.282,48.0532)">
            <rect x="188.544" y="131.333" width="19.907" height="19.907" style="fill:rgb(255,0,17);"/>
        </g>
        <g transform="matrix(1.00467,0,0,1.00467,867.282,48.0532)">
            <rect x="188.544" y="131.333" width="19.907" height="19.907" style="fill:rgb(255,0,17);"/>
        </g>
        <g transform="matrix(1.00467,0,0,1.00467,1007.28,48.0532)">
            <rect x="188.544" y="131.333" width="19.907" height="19.907" style="fill:rgb(255,0,17);"/>
        </g>
        <g transform="matrix(1.00467,0,0,1.00467,727.282,68.0532)">
            <rect x="188.544" y="131.333" width="19.907" height="19.907" style="fill:rgb(245,255,0);"/>
        </g>
        <g transform="matrix(1.00467,0,0,1.00467,867.282,68.0532)">
            <rect x="188.544" y="131.333" width="19.907" height="19.907" style="fill:rgb(245,255,0);"/>
        </g>
        <g transform="matrix(1.00467,0,0,1.00467,1007.28,68.0532)">
            <rect x="188.544" y="131.333" width="19.907" height="19.907" style="fill:rgb(245,255,0);"/>
        </g>
        <g transform="matrix(1.00467,0,0,1.00467,727.282,88.0532)">
            <rect x="188.544" y="131.333" width="19.907" height="19.907"/>
        </g>
        <g transform="matrix(1.00467,0,0,1.00467,867.282,88.0532)">
            <rect x="188.544" y="131.333" width="19.907" height="19.907" style="fill:rgb(245,255,0);"/>
        </g>
        <g transform="matrix(1.00467,0,0,1.00467,1007.28,88.0532)">
            <rect x="188.544" y="131.333" width="19.907" height="19.907" style="fill:rgb(245,255,0);"/>
        </g>
        <g transform="matrix(1.00467,0,0,1.00467,867.282,108.053)">
            <rect x="188.544" y="131.333" width="19.907" height="19.907" style="fill:rgb(245,255,0);"/>
        </g>
        <g transform="matrix(1.00467,0,0,1.00467,1007.28,108.053)">
            <rect x="188.544" y="131.333" width="19.907" height="19.907" style="fill:rgb(245,255,0);"/>
        </g>
        <g transform="matrix(1.00467,0,0,1.00467,727.282,128.053)">
            <rect x="188.544" y="131.333" width="19.907" height="19.907"/>
        </g>
        <g transform="matrix(1.00467,0,0,1.00467,867.282,128.053)">
            <rect x="188.544" y="131.333" width="19.907" height="19.907" style="fill:rgb(245,255,0);"/>
        </g>
        <g transform="matrix(1.00467,0,0,1.00467,1007.28,128.053)">
            <rect x="188.544" y="131.333" width="19.907" height="19.907" style="fill:rgb(245,255,0);"/>
        </g>
        <g transform="matrix(1.00467,0,0,1.00467,727.282,148.053)">
            <rect x="188.544" y="131.333" width="19.907" height="19.907" style="fill:rgb(255,0,17);"/>
        </g>
        <g transform="matrix(1.00467,0,0,1.00467,867.282,148.053)">
            <rect x="188.544" y="131.333" width="19.907" height="19.907" style="fill:rgb(245,255,0);"/>
        </g>
        <g transform="matrix(1.00467,0,0,1.00467,1007.28,148.053)">
            <rect x="188.544" y="131.333" width="19.907" height="19.907" style="fill:rgb(245,255,0);"/>
        </g>
        <g transform="matrix(1.00467,0,0,1.00467,727.282,168.053)">
            <rect x="188.544" y="131.333" width="19.907" height="19.907" style="fill:white;"/>
        </g>
        <g transform="matrix(1.00467,0,0,1.00467,867.282,168.053)">
            <rect x="188.544" y="131.333" width="19.907" height="19.907" style="fill:rgb(255,0,17);"/>
        </g>
        <g transform="matrix(1.00467,0,0,1.00467,1007.28,168.053)">
            <rect x="188.544" y="131.333" width="19.907" height="19.907" style="fill:rgb(255,0,17);"/>
        </g>
        <g transform="matrix(1.00467,0,0,1.00467,727.282,188.053)">
            <rect x="188.544" y="131.333" width="19.907" height="19.907"/>
        </g>
        <g transform="matrix(1.00467,0,0,1.00467,867.282,188.053)">
            <rect x="188.544" y="131.333" width="19.907" height="19.907"/>
        </g>
        <g transform="matrix(1.00467,0,0,1.00467,1007.28,188.053)">
            <rect x="188.544" y="131.333" width="19.907" height="19.907"/>
        </g>
        <g transform="matrix(1.00467,0,0,1.00467,747.282,28.0532)">
            <rect x="188.544" y="131.333" width="19.907" height="19.907"/>
        </g>
        <g transform="matrix(1.00467,0,0,1.00467,887.282,28.0532)">
            <rect x="188.544" y="131.333" width="19.907" height="19.907"/>
        </g>
        <g transform="matrix(1.00467,0,0,1.00467,1027.28,28.0532)">
            <rect x="188.544" y="131.333" width="19.907" height="19.907"/>
        </g>
        <g transform="matrix(1.00467,0,0,1.00467,747.282,48.0532)">
            <rect x="188.544" y="131.333" width="19.907" height="19.907" style="fill:white;"/>
        </g>
        <g transform="matrix(1.00467,0,0,1.00467,887.282,48.0532)">
            <rect x="188.544" y="131.333" width="19.907" height="19.907" style="fill:white;"/>
        </g>
        <g transform="matrix(1.00467,0,0,1.00467,1027.28,48.0532)">
            <rect x="188.544" y="131.333" width="19.907" height="19.907" style="fill:white;"/>
        </g>
        <g transform="matrix(1.00467,0,0,1.00467,747.282,68.0532)">
            <rect x="188.544" y="131.333" width="19.907" height="19.907" style="fill:rgb(0,255,237);"/>
        </g>
        <g transform="matrix(1.00467,0,0,1.00467,887.282,68.0532)">
            <rect x="188.544" y="131.333" width="19.907" height="19.907" style="fill:rgb(0,255,237);"/>
        </g>
        <g transform="matrix(1.00467,0,0,1.00467,1027.28,68.0532)">
            <rect x="188.544" y="131.333" width="19.907" height="19.907" style="fill:rgb(0,255,237);"/>
        </g>
        <g transform="matrix(1.00467,0,0,1.00467,747.282,88.0532)">
            <rect x="188.544" y="131.333" width="19.907" height="19.907"/>
        </g>
        <g transform="matrix(1.00467,0,0,1.00467,887.282,88.0532)">
            <rect x="188.544" y="131.333" width="19.907" height="19.907" style="fill:rgb(0,255,237);"/>
        </g>
        <g transform="matrix(1.00467,0,0,1.00467,1027.28,88.0532)">
            <rect x="188.544" y="131.333" width="19.907" height="19.907" style="fill:rgb(0,255,237);"/>
        </g>
        <g transform="matrix(1.00467,0,0,1.00467,747.282,108.053)">
            <rect x="188.544" y="131.333" width="19.907" height="19.907"/>
        </g>
        <g transform="matrix(1.00467,0,0,1.00467,887.282,108.053)">
            <rect x="188.544" y="131.333" width="19.907" height="19.907" style="fill:rgb(0,255,237);"/>
        </g>
        <g transform="matrix(1.00467,0,0,1.00467,1027.28,108.053)">
            <rect x="188.544" y="131.333" width="19.907" height="19.907" style="fill:rgb(0,255,237);"/>
        </g>
        <g transform="matrix(1.00467,0,0,1.00467,747.282,128.053)">
            <rect x="188.544" y="131.333" width="19.907" height="19.907" style="fill:rgb(255,0,17);"/>
        </g>
        <g transform="matrix(1.00467,0,0,1.00467,887.282,128.053)">
            <rect x="188.544" y="131.333" width="19.907" height="19.907" style="fill:rgb(0,255,237);"/>
        </g>
        <g transform="matrix(1.00467,0,0,1.00467,1027.28,128.053)">
            <rect x="188.544" y="131.333" width="19.907" height="19.907" style="fill:rgb(0,255,237);"/>
        </g>
        <g transform="matrix(1.00467,0,0,1.00467,747.282,148.053)">
            <rect x="188.544" y="131.333" width="19.907" height="19.907" style="fill:rgb(245,255,0);"/>
        </g>
        <g transform="matrix(1.00467,0,0,1.00467,887.282,148.053)">
            <rect x="188.544" y="131.333" width="19.907" height="19.907" style="fill:rgb(0,255,237);"/>
        </g>
        <g transform="matrix(1.00467,0,0,1.00467,1027.28,148.053)">
            <rect x="188.544" y="131.333" width="19.907" height="19.907" style="fill:rgb(0,255,237);"/>
        </g>
        <g transform="matrix(1.00467,0,0,1.00467,747.282,168.053)">
            <rect x="188.544" y="131.333" width="19.907" height="19.907" style="fill:white;"/>
        </g>
        <g transform="matrix(1.00467,0,0,1.00467,887.282,168.053)">
            <rect x="188.544" y="131.333" width="19.907" height="19.907" style="fill:white;"/>
        </g>
        <g transform="matrix(1.00467,0,0,1.00467,1027.28,168.053)">
            <rect x="188.544" y="131.333" width="19.907" height="19.907" style="fill:white;"/>
        </g>
        <g transform="matrix(1.00467,0,0,1.00467,747.282,188.053)">
            <rect x="188.544" y="131.333" width="19.907" height="19.907"/>
        </g>
        <g transform="matrix(1.00467,0,0,1.00467,887.282,188.053)">
            <rect x="188.544" y="131.333" width="19.907" height="19.907"/>
        </g>
        <g transform="matrix(1.00467,0,0,1.00467,1027.28,188.053)">
            <rect x="188.544" y="131.333" width="19.907" height="19.907"/>
        </g>
        <g transform="matrix(1.00467,0,0,1.00467,767.282,28.0532)">
            <rect x="188.544" y="131.333" width="19.907" height="19.907"/>
        </g>
        <g transform="matrix(1.00467,0,0,1.00467,907.282,28.0532)">
            <rect x="188.544" y="131.333" width="19.907" height="19.907"/>
        </g>
        <g transform="matrix(1.00467,0,0,1.00467,1047.28,28.0532)">
            <rect x="188.544" y="131.333" width="19.907" height="19.907"/>
        </g>
        <g transform="matrix(1.00467,0,0,1.00467,767.282,48.0532)">
            <rect x="188.544" y="131.333" width="19.907" height="19.907" style="fill:white;"/>
        </g>
        <g transform="matrix(1.00467,0,0,1.00467,907.282,48.0532)">
            <rect x="188.544" y="131.333" width="19.907" height="19.907" style="fill:white;"/>
        </g>
        <g transform="matrix(1.00467,0,0,1.00467,1047.28,48.0532)">
            <rect x="188.544" y="131.333" width="19.907" height="19.907" style="fill:white;"/>
        </g>
        <g transform="matrix(1.00467,0,0,1.00467,767.282,68.0532)">
            <rect x="188.544" y="131.333" width="19.907" height="19.907" style="fill:rgb(255,0,17);"/>
        </g>
        <g transform="matrix(1.00467,0,0,1.00467,907.282,68.0532)">
            <rect x="188.544" y="131.333" width="19.907" height="19.907" style="fill:rgb(255,0,17);"/>
        </g>
        <g transform="matrix(1.00467,0,0,1.00467,1047.28,68.0532)">
            <rect x="188.544" y="131.333" width="19.907" height="19.907" style="fill:rgb(255,0,17);"/>
        </g>
        <g transform="matrix(1.00467,0,0,1.00467,767.282,88.0532)">
            <rect x="188.544" y="131.333" width="19.907" height="19.907" style="fill:rgb(255,0,17);"/>
        </g>
        <g transform="matrix(1.00467,0,0,1.00467,907.282,88.0532)">
            <rect x="188.544" y="131.333" width="19.907" height="19.907" style="fill:rgb(255,0,17);"/>
        </g>
        <g transform="matrix(1.00467,0,0,1.00467,1047.28,88.0532)">
            <rect x="188.544" y="131.333" width="19.907" height="19.907" style="fill:rgb(255,0,17);"/>
        </g>
        <g transform="matrix(1.00467,0,0,1.00467,767.282,108.053)">
            <rect x="188.544" y="131.333" width="19.907" height="19.907" style="fill:rgb(255,0,17);"/>
        </g>
        <g transform="matrix(1.00467,0,0,1.00467,907.282,108.053)">
            <rect x="188.544" y="131.333" width="19.907" height="19.907" style="fill:rgb(255,0,17);"/>
        </g>
        <g transform="matrix(1.00467,0,0,1.00467,1047.28,108.053)">
            <rect x="188.544" y="131.333" width="19.907" height="19.907" style="fill:rgb(255,0,17);"/>
        </g>
        <g transform="matrix(1.00467,0,0,1.00467,767.282,128.053)">
            <rect x="188.544" y="131.333" width="19.907" height="19.907" style="fill:rgb(245,255,0);"/>
        </g>
        <g transform="matrix(1.00467,0,0,1.00467,907.282,128.053)">
            <rect x="188.544" y="131.333" width="19.907" height="19.907" style="fill:rgb(255,0,17);"/>
        </g>
        <g transform="matrix(1.00467,0,0,1.00467,1047.28,128.053)">
            <rect x="188.544" y="131.333" width="19.907" height="19.907" style="fill:rgb(255,0,17);"/>
        </g>
        <g transform="matrix(1.00467,0,0,1.00467,767.282,148.053)">
            <rect x="188.544" y="131.333" width="19.907" height="19.907" style="fill:rgb(0,255,237);"/>
        </g>
        <g transform="matrix(1.00467,0,0,1.00467,907.282,148.053)">
            <rect x="188.544" y="131.333" width="19.907" height="19.907" style="fill:rgb(255,0,17);"/>
        </g>
        <g transform="matrix(1.00467,0,0,1.00467,1047.28,148.053)">
            <rect x="188.544" y="131.333" width="19.907" height="19.907" style="fill:rgb(255,0,17);"/>
        </g>
        <g transform="matrix(1.00467,0,0,1.00467,767.282,168.053)">
            <rect x="188.544" y="131.333" width="19.907" height="19.907" style="fill:white;"/>
        </g>
        <g transform="matrix(1.00467,0,0,1.00467,907.282,168.053)">
            <rect x="188.544" y="131.333" width="19.907" height="19.907" style="fill:white;"/>
        </g>
        <g transform="matrix(1.00467,0,0,1.00467,1047.28,168.053)">
            <rect x="188.544" y="131.333" width="19.907" height="19.907" style="fill:white;"/>
        </g>
        <g transform="matrix(1.00467,0,0,1.00467,767.282,188.053)">
            <rect x="188.544" y="131.333" width="19.907" height="19.907"/>
        </g>
        <g transform="matrix(1.00467,0,0,1.00467,907.282,188.053)">
            <rect x="188.544" y="131.333" width="19.907" height="19.907"/>
        </g>
        <g transform="matrix(1.00467,0,0,1.00467,1047.28,188.053)">
            <rect x="188.544" y="131.333" width="19.907" height="19.907"/>
        </g>
        <g transform="matrix(1.00467,0,0,1.00467,787.282,28.0532)">
            <rect x="188.544" y="131.333" width="19.907" height="19.907"/>
        </g>
        <g transform="matrix(1.00467,0,0,1.00467,927.282,28.0532)">
            <rect x="188.544" y="131.333" width="19.907" height="19.907"/>
        </g>
        <g transform="matrix(1.00467,0,0,1.00467,1067.28,28.0532)">
            <rect x="188.544" y="131.333" width="19.907" height="19.907"/>
        </g>
        <g transform="matrix(1.00467,0,0,1.00467,787.282,48.0532)">
            <rect x="188.544" y="131.333" width="19.907" height="19.907" style="fill:rgb(0,255,237);"/>
        </g>
        <g transform="matrix(1.00467,0,0,1.00467,927.282,48.0532)">
            <rect x="188.544" y="131.333" width="19.907" height="19.907" style="fill:rgb(0,255,237);"/>
        </g>
        <g transform="matrix(1.00467,0,0,1.00467,1067.28,48.0532)">
            <rect x="188.544" y="131.333" width="19.907" height="19.907" style="fill:rgb(0,255,237);"/>
        </g>
        <g transform="matrix(1.00467,0,0,1.00467,787.282,68.0532)">
            <rect x="188.544" y="131.333" width="19.907" height="19.907" style="fill:rgb(245,255,0);"/>
        </g>
        <g transform="matrix(1.00467,0,0,1.00467,927.282,68.0532)">
            <rect x="188.544" y="131.333" width="19.907" height="19.907" style="fill:rgb(245,255,0);"/>
        </g>
        <g transform="matrix(1.00467,0,0,1.00467,1067.28,68.0532)">
            <rect x="188.544" y="131.333" width="19.907" height="19.907" style="fill:rgb(245,255,0);"/>
        </g>
        <g transform="matrix(1.00467,0,0,1.00467,787.282,88.0532)">
            <rect x="188.544" y="131.333" width="19.907" height="19.907" style="fill:rgb(245,255,0);"/>
        </g>
        <g transform="matrix(1.00467,0,0,1.00467,927.282,88.0532)">
            <rect x="188.544" y="131.333" width="19.907" height="19.907" style="fill:rgb(245,255,0);"/>
        </g>
        <g transform="matrix(1.00467,0,0,1.00467,1067.28,88.0532)">
            <rect x="188.544" y="131.333" width="19.907" height="19.907" style="fill:rgb(245,255,0);"/>
        </g>
        <g transform="matrix(1.00467,0,0,1.00467,787.282,108.053)">
            <rect x="188.544" y="131.333" width="19.907" height="19.907" style="fill:rgb(245,255,0);"/>
        </g>
        <g transform="matrix(1.00467,0,0,1.00467,927.282,108.053)">
            <rect x="188.544" y="131.333" width="19.907" height="19.907" style="fill:rgb(245,255,0);"/>
        </g>
        <g transform="matrix(1.00467,0,0,1.00467,1067.28,108.053)">
            <rect x="188.544" y="131.333" width="19.907" height="19.907" style="fill:rgb(245,255,0);"/>
        </g>
        <g transform="matrix(1.00467,0,0,1.00467,787.282,128.053)">
            <rect x="188.544" y="131.333" width="19.907" height="19.907" style="fill:rgb(0,255,237);"/>
        </g>
        <g transform="matrix(1.00467,0,0,1.00467,927.282,128.053)">
            <rect x="188.544" y="131.333" width="19.907" height="19.907" style="fill:rgb(245,255,0);"/>
        </g>
        <g transform="matrix(1.00467,0,0,1.00467,1067.28,128.053)">
            <rect x="188.544" y="131.333" width="19.907" height="19.907" style="fill:rgb(245,255,0);"/>
        </g>
        <g transform="matrix(1.00467,0,0,1.00467,787.282,148.053)">
            <rect x="188.544" y="131.333" width="19.907" height="19.907" style="fill:rgb(0,0,255);"/>
        </g>
        <g transform="matrix(1.00467,0,0,1.00467,927.282,148.053)">
            <rect x="188.544" y="131.333" width="19.907" height="19.907" style="fill:rgb(245,255,0);"/>
        </g>
        <g transform="matrix(1.00467,0,0,1.00467,1067.28,148.053)">
            <rect x="188.544" y="131.333" width="19.907" height="19.907" style="fill:rgb(245,255,0);"/>
        </g>
        <g transform="matrix(1.00467,0,0,1.00467,787.282,168.053)">
            <rect x="188.544" y="131.333" width="19.907" height="19.907" style="fill:white;"/>
        </g>
        <g transform="matrix(1.00467,0,0,1.00467,927.282,168.053)">
            <rect x="188.544" y="131.333" width="19.907" height="19.907" style="fill:rgb(0,255,237);"/>
        </g>
        <g transform="matrix(1.00467,0,0,1.00467,1067.28,168.053)">
            <rect x="188.544" y="131.333" width="19.907" height="19.907" style="fill:rgb(0,255,237);"/>
        </g>
        <g transform="matrix(1.00467,0,0,1.00467,787.282,188.053)">
            <rect x="188.544" y="131.333" width="19.907" height="19.907"/>
        </g>
        <g transform="matrix(1.00467,0,0,1.00467,927.282,188.053)">
            <rect x="188.544" y="131.333" width="19.907" height="19.907"/>
        </g>
        <g transform="matrix(1.00467,0,0,1.00467,1067.28,188.053)">
            <rect x="188.544" y="131.333" width="19.907" height="19.907"/>
        </g>
        <g transform="matrix(1.00467,0,0,1.00467,807.282,28.0532)">
            <rect x="188.544" y="131.333" width="19.907" height="19.907"/>
        </g>
        <g transform="matrix(1.00467,0,0,1.00467,947.282,28.0532)">
            <rect x="188.544" y="131.333" width="19.907" height="19.907"/>
        </g>
        <g transform="matrix(1.00467,0,0,1.00467,1087.28,28.0532)">
            <rect x="188.544" y="131.333" width="19.907" height="19.907"/>
        </g>
        <g transform="matrix(1.00467,0,0,1.00467,807.282,48.0532)">
            <rect x="188.544" y="131.333" width="19.907" height="19.907" style="fill:rgb(0,0,255);"/>
        </g>
        <g transform="matrix(1.00467,0,0,1.00467,947.282,48.0532)">
            <rect x="188.544" y="131.333" width="19.907" height="19.907" style="fill:rgb(0,0,255);"/>
        </g>
        <g transform="matrix(1.00467,0,0,1.00467,1087.28,48.0532)">
            <rect x="188.544" y="131.333" width="19.907" height="19.907" style="fill:rgb(0,0,255);"/>
        </g>
        <g transform="matrix(1.00467,0,0,1.00467,807.282,68.0532)">
            <rect x="188.544" y="131.333" width="19.907" height="19.907" style="fill:rgb(0,255,237);"/>
        </g>
        <g transform="matrix(1.00467,0,0,1.00467,947.282,68.0532)">
            <rect x="188.544" y="131.333" width="19.907" height="19.907" style="fill:rgb(0,255,237);"/>
        </g>
        <g transform="matrix(1.00467,0,0,1.00467,1087.28,68.0532)">
            <rect x="188.544" y="131.333" width="19.907" height="19.907" style="fill:rgb(0,255,237);"/>
        </g>
        <g transform="matrix(1.00467,0,0,1.00467,807.282,88.0532)">
            <rect x="188.544" y="131.333" width="19.907" height="19.907" style="fill:rgb(0,255,237);"/>
        </g>
        <g transform="matrix(1.00467,0,0,1.00467,947.282,88.0532)">
            <rect x="188.544" y="131.333" width="19.907" height="19.907" style="fill:rgb(0,255,237);"/>
        </g>
        <g transform="matrix(1.00467,0,0,1.00467,1087.28,88.0532)">
            <rect x="188.544" y="131.333" width="19.907" height="19.907" style="fill:rgb(0,255,237);"/>
        </g>
        <g transform="matrix(1.00467,0,0,1.00467,807.282,108.053)">
            <rect x="188.544" y="131.333" width="19.907" height="19.907" style="fill:rgb(0,255,237);"/>
        </g>
        <g transform="matrix(1.00467,0,0,1.00467,947.282,108.053)">
            <rect x="188.544" y="131.333" width="19.907" height="19.907" style="fill:rgb(0,255,237);"/>
        </g>
        <g transform="matrix(1.00467,0,0,1.00467,1087.28,108.053)">
            <rect x="188.544" y="131.333" width="19.907" height="19.907" style="fill:rgb(0,255,237);"/>
        </g>
        <g transform="matrix(1.00467,0,0,1.00467,807.282,128.053)">
            <rect x="188.544" y="131.333" width="19.907" height="19.907" style="fill:rgb(0,0,255);"/>
        </g>
        <g transform="matrix(1.00467,0,0,1.00467,947.282,128.053)">
            <rect x="188.544" y="131.333" width="19.907" height="19.907" style="fill:rgb(0,255,237);"/>
        </g>
        <g transform="matrix(1.00467,0,0,1.00467,1087.28,128.053)">
            <rect x="188.544" y="131.333" width="19.907" height="19.907" style="fill:rgb(0,255,237);"/>
        </g>
        <g transform="matrix(1.00467,0,0,1.00467,807.282,148.053)">
            <rect x="188.544" y="131.333" width="19.907" height="19.907"/>
        </g>
        <g transform="matrix(1.00467,0,0,1.00467,947.282,148.053)">
            <rect x="188.544" y="131.333" width="19.907" height="19.907" style="fill:rgb(0,255,237);"/>
        </g>
        <g transform="matrix(1.00467,0,0,1.00467,1087.28,148.053)">
            <rect x="188.544" y="131.333" width="19.907" height="19.907" style="fill:rgb(0,255,237);"/>
        </g>
        <g transform="matrix(1.00467,0,0,1.00467,807.282,168.053)">
            <rect x="188.544" y="131.333" width="19.907" height="19.907" style="fill:rgb(0,255,237);"/>
        </g>
        <g transform="matrix(1.00467,0,0,1.00467,947.282,168.053)">
            <rect x="188.544" y="131.333" width="19.907" height="19.907" style="fill:rgb(0,0,255);"/>
        </g>
        <g transform="matrix(1.00467,0,0,1.00467,1087.28,168.053)">
            <rect x="188.544" y="131.333" width="19.907" height="19.907" style="fill:rgb(0,0,255);"/>
        </g>
        <g transform="matrix(1.00467,0,0,1.00467,807.282,188.053)">
            <rect x="188.544" y="131.333" width="19.907" height="19.907"/>
        </g>
        <g transform="matrix(1.00467,0,0,1.00467,947.282,188.053)">
            <rect x="188.544" y="131.333" width="19.907" height="19.907"/>
        </g>
        <g transform="matrix(1.00467,0,0,1.00467,1087.28,188.053)">
            <rect x="188.544" y="131.333" width="19.907" height="19.907"/>
        </g>
        <g transform="matrix(1.00467,0,0,1.00467,827.282,48.0532)">
            <rect x="188.544" y="131.333" width="19.907" height="19.907"/>
        </g>
        <g transform="matrix(1.00467,0,0,1.00467,967.282,48.0532)">
            <rect x="188.544" y="131.333" width="19.907" height="19.907"/>
        </g>
        <g transform="matrix(1.00467,0,0,1.00467,1107.28,48.0532)">
            <rect x="188.544" y="131.333" width="19.907" height="19.907"/>
        </g>
        <g transform="matrix(1.00467,0,0,1.00467,827.282,68.0532)">
            <rect x="188.544" y="131.333" width="19.907" height="19.907" style="fill:rgb(0,0,255);"/>
        </g>
        <g transform="matrix(1.00467,0,0,1.00467,967.282,68.0532)">
            <rect x="188.544" y="131.333" width="19.907" height="19.907" style="fill:rgb(0,0,255);"/>
        </g>
        <g transform="matrix(1.00467,0,0,1.00467,1107.28,68.0532)">
            <rect x="188.544" y="131.333" width="19.907" height="19.907" style="fill:rgb(0,0,255);"/>
        </g>
        <g transform="matrix(1.00467,0,0,1.00467,827.282,88.0532)">
            <rect x="188.544" y="131.333" width="19.907" height="19.907" style="fill:rgb(0,0,255);"/>
        </g>
        <g transform="matrix(1.00467,0,0,1.00467,967.282,88.0532)">
            <rect x="188.544" y="131.333" width="19.907" height="19.907" style="fill:rgb(0,0,255);"/>
        </g>
        <g transform="matrix(1.00467,0,0,1.00467,1107.28,88.0532)">
            <rect x="188.544" y="131.333" width="19.907" height="19.907" style="fill:rgb(0,0,255);"/>
        </g>
        <g transform="matrix(1.00467,0,0,1.00467,827.282,108.053)">
            <rect x="188.544" y="131.333" width="19.907" height="19.907" style="fill:rgb(0,0,255);"/>
        </g>
        <g transform="matrix(1.00467,0,0,1.00467,967.282,108.053)">
            <rect x="188.544" y="131.333" width="19.907" height="19.907" style="fill:rgb(0,0,255);"/>
        </g>
        <g transform="matrix(1.00467,0,0,1.00467,1107.28,108.053)">
            <rect x="188.544" y="131.333" width="19.907" height="19.907" style="fill:rgb(0,0,255);"/>
        </g>
        <g transform="matrix(1.00467,0,0,1.00467,827.282,128.053)">
            <rect x="188.544" y="131.333" width="19.907" height="19.907"/>
        </g>
        <g transform="matrix(1.00467,0,0,1.00467,967.282,128.053)">
            <rect x="188.544" y="131.333" width="19.907" height="19.907" style="fill:rgb(0,0,255);"/>
        </g>
        <g transform="matrix(1.00467,0,0,1.00467,1107.28,128.053)">
            <rect x="188.544" y="131.333" width="19.907" height="19.907" style="fill:rgb(0,0,255);"/>
        </g>
        <g transform="matrix(1.00467,0,0,1.00467,827.282,148.053)">
            <rect x="188.544" y="131.333" width="19.907" height="19.907"/>
        </g>
        <g transform="matrix(1.00467,0,0,1.00467,967.282,148.053)">
            <rect x="188.544" y="131.333" width="19.907" height="19.907" style="fill:rgb(0,0,255);"/>
        </g>
        <g transform="matrix(1.00467,0,0,1.00467,1107.28,148.053)">
            <rect x="188.544" y="131.333" width="19.907" height="19.907" style="fill:rgb(0,0,255);"/>
        </g>
        <g transform="matrix(1.00467,0,0,1.00467,827.282,168.053)">
            <rect x="188.544" y="131.333" width="19.907" height="19.907" style="fill:rgb(0,0,255);"/>
        </g>
        <g transform="matrix(1.00467,0,0,1.00467,967.282,168.053)">
            <rect x="188.544" y="131.333" width="19.907" height="19.907"/>
        </g>
        <g transform="matrix(1.00467,0,0,1.00467,1107.28,168.053)">
            <rect x="188.544" y="131.333" width="19.907" height="19.907"/>
        </g>
        <g transform="matrix(1.00467,0,0,1.00467,827.282,188.053)">
            <rect x="188.544" y="131.333" width="19.907" height="19.907"/>
        </g>
    </g>
</svg>
