<svg width="24" height="24" viewBox="0 0 24 24" fill="none" xmlns="http://www.w3.org/2000/svg">
<g clip-path="url(#clip0_22_21)">
<path d="M15.75 12C15.75 12.8672 15.7031 13.7031 15.6211 14.5H8.37891C8.29297 13.7031 8.25 12.8672 8.25 12C8.25 11.1328 8.29688 10.2969 8.37891 9.5H15.6211C15.707 10.2969 15.75 11.1328 15.75 12ZM16.875 9.5H21.6836C21.8906 10.3008 22 11.1367 22 12C22 12.8633 21.8906 13.6992 21.6836 14.5H16.875C16.957 13.6953 17 12.8594 17 12C17 11.1406 16.957 10.3047 16.875 9.5ZM21.2734 8.25H16.7148C16.3242 5.75391 15.5508 3.66406 14.5547 2.32812C17.6133 3.13672 20.1016 5.35547 21.2695 8.25H21.2734ZM15.4492 8.25H8.55078C8.78906 6.82812 9.15625 5.57031 9.60547 4.55078C10.0156 3.62891 10.4727 2.96094 10.9141 2.53906C11.3516 2.125 11.7148 2 12 2C12.2852 2 12.6484 2.125 13.0859 2.53906C13.5273 2.96094 13.9844 3.62891 14.3945 4.55078C14.8477 5.56641 15.2109 6.82422 15.4492 8.25ZM7.28516 8.25H2.72656C3.89844 5.35547 6.38281 3.13672 9.44531 2.32812C8.44922 3.66406 7.67578 5.75391 7.28516 8.25ZM2.31641 9.5H7.125C7.04297 10.3047 7 11.1406 7 12C7 12.8594 7.04297 13.6953 7.125 14.5H2.31641C2.10938 13.6992 2 12.8633 2 12C2 11.1367 2.10938 10.3008 2.31641 9.5ZM9.60547 19.4453C9.15234 18.4297 8.78906 17.1719 8.55078 15.75H15.4492C15.2109 17.1719 14.8437 18.4297 14.3945 19.4453C13.9844 20.3672 13.5273 21.0352 13.0859 21.457C12.6484 21.875 12.2852 22 12 22C11.7148 22 11.3516 21.875 10.9141 21.4609C10.4727 21.0391 10.0156 20.3711 9.60547 19.4492V19.4453ZM7.28516 15.75C7.67578 18.2461 8.44922 20.3359 9.44531 21.6719C6.38281 20.8633 3.89844 18.6445 2.72656 15.75H7.28516ZM21.2734 15.75C20.1016 18.6445 17.6172 20.8633 14.5586 21.6719C15.5547 20.3359 16.3242 18.2461 16.7187 15.75H21.2734Z" fill="#fff"/>
</g>
<defs>
<clipPath id="clip0_22_21">
<rect width="20" height="20" fill="#fff" transform="translate(2 2)"/>
</clipPath>
</defs>
</svg>
