<?xml version="1.0" encoding="UTF-8" standalone="no"?>
<!DOCTYPE svg PUBLIC "-//W3C//DTD SVG 1.1//EN" "http://www.w3.org/Graphics/SVG/1.1/DTD/svg11.dtd">
<svg width="100%" height="100%" viewBox="0 0 360 180" version="1.1" xmlns="http://www.w3.org/2000/svg" xmlns:xlink="http://www.w3.org/1999/xlink" xml:space="preserve" xmlns:serif="http://www.serif.com/" style="fill-rule:evenodd;clip-rule:evenodd;stroke-linejoin:round;stroke-miterlimit:2;">
    <g transform="matrix(1,0,0,1,-280.544,-160)">
        <g transform="matrix(1.00467,0,0,1.00467,271.119,28.0532)">
            <rect x="188.544" y="131.333" width="19.907" height="19.907"/>
        </g>
        <g transform="matrix(1.00467,0,0,1.00467,91.1186,48.0532)">
            <rect x="188.544" y="131.333" width="19.907" height="19.907"/>
        </g>
        <g transform="matrix(1.00467,0,0,1.00467,271.119,48.0532)">
            <rect x="188.544" y="131.333" width="19.907" height="19.907" style="fill:rgb(255,0,17);"/>
        </g>
        <g transform="matrix(1.00467,0,0,1.00467,91.1186,68.0532)">
            <rect x="188.544" y="131.333" width="19.907" height="19.907" style="fill:rgb(255,0,17);"/>
        </g>
        <g transform="matrix(1.00467,0,0,1.00467,271.119,68.0532)">
            <rect x="188.544" y="131.333" width="19.907" height="19.907" style="fill:rgb(255,0,17);"/>
        </g>
        <g transform="matrix(1.00467,0,0,1.00467,91.1186,88.0532)">
            <rect x="188.544" y="131.333" width="19.907" height="19.907" style="fill:rgb(255,0,17);"/>
        </g>
        <g transform="matrix(1.00467,0,0,1.00467,271.119,88.0532)">
            <rect x="188.544" y="131.333" width="19.907" height="19.907" style="fill:rgb(255,0,17);"/>
        </g>
        <g transform="matrix(1.00467,0,0,1.00467,91.1186,108.053)">
            <rect x="188.544" y="131.333" width="19.907" height="19.907" style="fill:rgb(255,0,17);"/>
        </g>
        <g transform="matrix(1.00467,0,0,1.00467,271.119,108.053)">
            <rect x="188.544" y="131.333" width="19.907" height="19.907" style="fill:rgb(255,0,17);"/>
        </g>
        <g transform="matrix(1.00467,0,0,1.00467,91.1186,128.053)">
            <rect x="188.544" y="131.333" width="19.907" height="19.907" style="fill:rgb(255,0,17);"/>
        </g>
        <g transform="matrix(1.00467,0,0,1.00467,271.119,128.053)">
            <rect x="188.544" y="131.333" width="19.907" height="19.907" style="fill:rgb(255,0,17);"/>
        </g>
        <g transform="matrix(1.00467,0,0,1.00467,91.1186,148.053)">
            <rect x="188.544" y="131.333" width="19.907" height="19.907" style="fill:rgb(255,0,17);"/>
        </g>
        <g transform="matrix(1.00467,0,0,1.00467,271.119,148.053)">
            <rect x="188.544" y="131.333" width="19.907" height="19.907" style="fill:rgb(255,0,17);"/>
        </g>
        <g transform="matrix(1.00467,0,0,1.00467,91.1186,168.053)">
            <rect x="188.544" y="131.333" width="19.907" height="19.907"/>
        </g>
        <g transform="matrix(1.00467,0,0,1.00467,271.119,168.053)">
            <rect x="188.544" y="131.333" width="19.907" height="19.907" style="fill:rgb(255,0,17);"/>
        </g>
        <g transform="matrix(1.00467,0,0,1.00467,271.119,188.053)">
            <rect x="188.544" y="131.333" width="19.907" height="19.907"/>
        </g>
        <g transform="matrix(1.00467,0,0,1.00467,111.119,28.0532)">
            <rect x="188.544" y="131.333" width="19.907" height="19.907"/>
        </g>
        <g transform="matrix(1.00467,0,0,1.00467,291.119,28.0532)">
            <rect x="188.544" y="131.333" width="19.907" height="19.907"/>
        </g>
        <g transform="matrix(1.00467,0,0,1.00467,111.119,48.0532)">
            <rect x="188.544" y="131.333" width="19.907" height="19.907" style="fill:rgb(255,0,17);"/>
        </g>
        <g transform="matrix(1.00467,0,0,1.00467,291.119,48.0532)">
            <rect x="188.544" y="131.333" width="19.907" height="19.907" style="fill:rgb(245,255,0);"/>
        </g>
        <g transform="matrix(1.00467,0,0,1.00467,111.119,68.0532)">
            <rect x="188.544" y="131.333" width="19.907" height="19.907" style="fill:rgb(245,255,0);"/>
        </g>
        <g transform="matrix(1.00467,0,0,1.00467,291.119,68.0532)">
            <rect x="188.544" y="131.333" width="19.907" height="19.907" style="fill:rgb(245,255,0);"/>
        </g>
        <g transform="matrix(1.00467,0,0,1.00467,111.119,88.0532)">
            <rect x="188.544" y="131.333" width="19.907" height="19.907" style="fill:rgb(245,255,0);"/>
        </g>
        <g transform="matrix(1.00467,0,0,1.00467,291.119,88.0532)">
            <rect x="188.544" y="131.333" width="19.907" height="19.907" style="fill:rgb(245,255,0);"/>
        </g>
        <g transform="matrix(1.00467,0,0,1.00467,111.119,108.053)">
            <rect x="188.544" y="131.333" width="19.907" height="19.907" style="fill:rgb(245,255,0);"/>
        </g>
        <g transform="matrix(1.00467,0,0,1.00467,291.119,108.053)">
            <rect x="188.544" y="131.333" width="19.907" height="19.907" style="fill:rgb(245,255,0);"/>
        </g>
        <g transform="matrix(1.00467,0,0,1.00467,111.119,128.053)">
            <rect x="188.544" y="131.333" width="19.907" height="19.907" style="fill:rgb(245,255,0);"/>
        </g>
        <g transform="matrix(1.00467,0,0,1.00467,291.119,128.053)">
            <rect x="188.544" y="131.333" width="19.907" height="19.907" style="fill:rgb(245,255,0);"/>
        </g>
        <g transform="matrix(1.00467,0,0,1.00467,111.119,148.053)">
            <rect x="188.544" y="131.333" width="19.907" height="19.907" style="fill:rgb(245,255,0);"/>
        </g>
        <g transform="matrix(1.00467,0,0,1.00467,291.119,148.053)">
            <rect x="188.544" y="131.333" width="19.907" height="19.907" style="fill:rgb(245,255,0);"/>
        </g>
        <g transform="matrix(1.00467,0,0,1.00467,111.119,168.053)">
            <rect x="188.544" y="131.333" width="19.907" height="19.907" style="fill:rgb(255,0,17);"/>
        </g>
        <g transform="matrix(1.00467,0,0,1.00467,291.119,168.053)">
            <rect x="188.544" y="131.333" width="19.907" height="19.907" style="fill:rgb(245,255,0);"/>
        </g>
        <g transform="matrix(1.00467,0,0,1.00467,111.119,188.053)">
            <rect x="188.544" y="131.333" width="19.907" height="19.907"/>
        </g>
        <g transform="matrix(1.00467,0,0,1.00467,291.119,188.053)">
            <rect x="188.544" y="131.333" width="19.907" height="19.907"/>
        </g>
        <g transform="matrix(1.00467,0,0,1.00467,131.119,28.0532)">
            <rect x="188.544" y="131.333" width="19.907" height="19.907"/>
        </g>
        <g transform="matrix(1.00467,0,0,1.00467,311.119,28.0532)">
            <rect x="188.544" y="131.333" width="19.907" height="19.907"/>
        </g>
        <g transform="matrix(1.00467,0,0,1.00467,131.119,48.0532)">
            <rect x="188.544" y="131.333" width="19.907" height="19.907" style="fill:rgb(245,255,0);"/>
        </g>
        <g transform="matrix(1.00467,0,0,1.00467,311.119,48.0532)">
            <rect x="188.544" y="131.333" width="19.907" height="19.907" style="fill:rgb(0,255,237);"/>
        </g>
        <g transform="matrix(1.00467,0,0,1.00467,131.119,68.0532)">
            <rect x="188.544" y="131.333" width="19.907" height="19.907" style="fill:rgb(0,255,237);"/>
        </g>
        <g transform="matrix(1.00467,0,0,1.00467,311.119,68.0532)">
            <rect x="188.544" y="131.333" width="19.907" height="19.907" style="fill:rgb(0,255,237);"/>
        </g>
        <g transform="matrix(1.00467,0,0,1.00467,131.119,88.0532)">
            <rect x="188.544" y="131.333" width="19.907" height="19.907" style="fill:rgb(0,255,237);"/>
        </g>
        <g transform="matrix(1.00467,0,0,1.00467,311.119,88.0532)">
            <rect x="188.544" y="131.333" width="19.907" height="19.907" style="fill:rgb(0,255,237);"/>
        </g>
        <g transform="matrix(1.00467,0,0,1.00467,131.119,108.053)">
            <rect x="188.544" y="131.333" width="19.907" height="19.907" style="fill:rgb(0,255,237);"/>
        </g>
        <g transform="matrix(1.00467,0,0,1.00467,311.119,108.053)">
            <rect x="188.544" y="131.333" width="19.907" height="19.907" style="fill:rgb(0,255,237);"/>
        </g>
        <g transform="matrix(1.00467,0,0,1.00467,131.119,128.053)">
            <rect x="188.544" y="131.333" width="19.907" height="19.907" style="fill:rgb(0,255,237);"/>
        </g>
        <g transform="matrix(1.00467,0,0,1.00467,311.119,128.053)">
            <rect x="188.544" y="131.333" width="19.907" height="19.907" style="fill:rgb(0,255,237);"/>
        </g>
        <g transform="matrix(1.00467,0,0,1.00467,131.119,148.053)">
            <rect x="188.544" y="131.333" width="19.907" height="19.907" style="fill:rgb(0,255,237);"/>
        </g>
        <g transform="matrix(1.00467,0,0,1.00467,311.119,148.053)">
            <rect x="188.544" y="131.333" width="19.907" height="19.907" style="fill:rgb(0,255,237);"/>
        </g>
        <g transform="matrix(1.00467,0,0,1.00467,131.119,168.053)">
            <rect x="188.544" y="131.333" width="19.907" height="19.907" style="fill:rgb(245,255,0);"/>
        </g>
        <g transform="matrix(1.00467,0,0,1.00467,311.119,168.053)">
            <rect x="188.544" y="131.333" width="19.907" height="19.907" style="fill:rgb(0,255,237);"/>
        </g>
        <g transform="matrix(1.00467,0,0,1.00467,131.119,188.053)">
            <rect x="188.544" y="131.333" width="19.907" height="19.907"/>
        </g>
        <g transform="matrix(1.00467,0,0,1.00467,311.119,188.053)">
            <rect x="188.544" y="131.333" width="19.907" height="19.907"/>
        </g>
        <g transform="matrix(1.00467,0,0,1.00467,151.119,28.0532)">
            <rect x="188.544" y="131.333" width="19.907" height="19.907"/>
        </g>
        <g transform="matrix(1.00467,0,0,1.00467,331.119,28.0532)">
            <rect x="188.544" y="131.333" width="19.907" height="19.907"/>
        </g>
        <g transform="matrix(1.00467,0,0,1.00467,151.119,48.0532)">
            <rect x="188.544" y="131.333" width="19.907" height="19.907" style="fill:white;"/>
        </g>
        <g transform="matrix(1.00467,0,0,1.00467,331.119,48.0532)">
            <rect x="188.544" y="131.333" width="19.907" height="19.907" style="fill:rgb(0,0,255);"/>
        </g>
        <g transform="matrix(1.00467,0,0,1.00467,151.119,68.0532)">
            <rect x="188.544" y="131.333" width="19.907" height="19.907" style="fill:rgb(0,0,255);"/>
        </g>
        <g transform="matrix(1.00467,0,0,1.00467,331.119,68.0532)">
            <rect x="188.544" y="131.333" width="19.907" height="19.907" style="fill:rgb(0,0,255);"/>
        </g>
        <g transform="matrix(1.00467,0,0,1.00467,151.119,88.0532)">
            <rect x="188.544" y="131.333" width="19.907" height="19.907" style="fill:rgb(0,0,255);"/>
        </g>
        <g transform="matrix(1.00467,0,0,1.00467,331.119,88.0532)">
            <rect x="188.544" y="131.333" width="19.907" height="19.907" style="fill:rgb(0,0,255);"/>
        </g>
        <g transform="matrix(1.00467,0,0,1.00467,151.119,108.053)">
            <rect x="188.544" y="131.333" width="19.907" height="19.907" style="fill:rgb(0,0,255);"/>
        </g>
        <g transform="matrix(1.00467,0,0,1.00467,331.119,108.053)">
            <rect x="188.544" y="131.333" width="19.907" height="19.907" style="fill:white;"/>
        </g>
        <g transform="matrix(1.00467,0,0,1.00467,151.119,128.053)">
            <rect x="188.544" y="131.333" width="19.907" height="19.907" style="fill:rgb(0,0,255);"/>
        </g>
        <g transform="matrix(1.00467,0,0,1.00467,331.119,128.053)">
            <rect x="188.544" y="131.333" width="19.907" height="19.907" style="fill:rgb(0,0,255);"/>
        </g>
        <g transform="matrix(1.00467,0,0,1.00467,151.119,148.053)">
            <rect x="188.544" y="131.333" width="19.907" height="19.907" style="fill:rgb(0,0,255);"/>
        </g>
        <g transform="matrix(1.00467,0,0,1.00467,331.119,148.053)">
            <rect x="188.544" y="131.333" width="19.907" height="19.907" style="fill:rgb(0,0,255);"/>
        </g>
        <g transform="matrix(1.00467,0,0,1.00467,151.119,168.053)">
            <rect x="188.544" y="131.333" width="19.907" height="19.907" style="fill:white;"/>
        </g>
        <g transform="matrix(1.00467,0,0,1.00467,331.119,168.053)">
            <rect x="188.544" y="131.333" width="19.907" height="19.907" style="fill:rgb(0,0,255);"/>
        </g>
        <g transform="matrix(1.00467,0,0,1.00467,151.119,188.053)">
            <rect x="188.544" y="131.333" width="19.907" height="19.907"/>
        </g>
        <g transform="matrix(1.00467,0,0,1.00467,331.119,188.053)">
            <rect x="188.544" y="131.333" width="19.907" height="19.907"/>
        </g>
        <g transform="matrix(1.00467,0,0,1.00467,171.119,28.0532)">
            <rect x="188.544" y="131.333" width="19.907" height="19.907"/>
        </g>
        <g transform="matrix(1.00467,0,0,1.00467,171.119,48.0532)">
            <rect x="188.544" y="131.333" width="19.907" height="19.907" style="fill:white;"/>
        </g>
        <g transform="matrix(1.00467,0,0,1.00467,351.119,48.0532)">
            <rect x="188.544" y="131.333" width="19.907" height="19.907"/>
        </g>
        <g transform="matrix(1.00467,0,0,1.00467,171.119,68.0532)">
            <rect x="188.544" y="131.333" width="19.907" height="19.907"/>
        </g>
        <g transform="matrix(1.00467,0,0,1.00467,351.119,68.0532)">
            <rect x="188.544" y="131.333" width="19.907" height="19.907" style="fill:rgb(255,0,17);"/>
        </g>
        <g transform="matrix(1.00467,0,0,1.00467,171.119,88.0532)">
            <rect x="188.544" y="131.333" width="19.907" height="19.907"/>
        </g>
        <g transform="matrix(1.00467,0,0,1.00467,351.119,88.0532)">
            <rect x="188.544" y="131.333" width="19.907" height="19.907" style="fill:rgb(245,255,0);"/>
        </g>
        <g transform="matrix(1.00467,0,0,1.00467,171.119,108.053)">
            <rect x="188.544" y="131.333" width="19.907" height="19.907"/>
        </g>
        <g transform="matrix(1.00467,0,0,1.00467,351.119,108.053)">
            <rect x="188.544" y="131.333" width="19.907" height="19.907" style="fill:white;"/>
        </g>
        <g transform="matrix(1.00467,0,0,1.00467,171.119,128.053)">
            <rect x="188.544" y="131.333" width="19.907" height="19.907"/>
        </g>
        <g transform="matrix(1.00467,0,0,1.00467,351.119,128.053)">
            <rect x="188.544" y="131.333" width="19.907" height="19.907" style="fill:rgb(245,255,0);"/>
        </g>
        <g transform="matrix(1.00467,0,0,1.00467,171.119,148.053)">
            <rect x="188.544" y="131.333" width="19.907" height="19.907"/>
        </g>
        <g transform="matrix(1.00467,0,0,1.00467,351.119,148.053)">
            <rect x="188.544" y="131.333" width="19.907" height="19.907" style="fill:rgb(255,0,17);"/>
        </g>
        <g transform="matrix(1.00467,0,0,1.00467,171.119,168.053)">
            <rect x="188.544" y="131.333" width="19.907" height="19.907" style="fill:white;"/>
        </g>
        <g transform="matrix(1.00467,0,0,1.00467,351.119,168.053)">
            <rect x="188.544" y="131.333" width="19.907" height="19.907"/>
        </g>
        <g transform="matrix(1.00467,0,0,1.00467,171.119,188.053)">
            <rect x="188.544" y="131.333" width="19.907" height="19.907"/>
        </g>
        <g transform="matrix(1.00467,0,0,1.00467,191.119,28.0532)">
            <rect x="188.544" y="131.333" width="19.907" height="19.907"/>
        </g>
        <g transform="matrix(1.00467,0,0,1.00467,371.119,28.0532)">
            <rect x="188.544" y="131.333" width="19.907" height="19.907"/>
        </g>
        <g transform="matrix(1.00467,0,0,1.00467,191.119,48.0532)">
            <rect x="188.544" y="131.333" width="19.907" height="19.907" style="fill:white;"/>
        </g>
        <g transform="matrix(1.00467,0,0,1.00467,371.119,48.0532)">
            <rect x="188.544" y="131.333" width="19.907" height="19.907" style="fill:rgb(255,0,17);"/>
        </g>
        <g transform="matrix(1.00467,0,0,1.00467,191.119,68.0532)">
            <rect x="188.544" y="131.333" width="19.907" height="19.907" style="fill:rgb(255,0,17);"/>
        </g>
        <g transform="matrix(1.00467,0,0,1.00467,371.119,68.0532)">
            <rect x="188.544" y="131.333" width="19.907" height="19.907" style="fill:rgb(245,255,0);"/>
        </g>
        <g transform="matrix(1.00467,0,0,1.00467,191.119,88.0532)">
            <rect x="188.544" y="131.333" width="19.907" height="19.907" style="fill:rgb(255,0,17);"/>
        </g>
        <g transform="matrix(1.00467,0,0,1.00467,371.119,88.0532)">
            <rect x="188.544" y="131.333" width="19.907" height="19.907" style="fill:rgb(0,255,237);"/>
        </g>
        <g transform="matrix(1.00467,0,0,1.00467,191.119,108.053)">
            <rect x="188.544" y="131.333" width="19.907" height="19.907" style="fill:rgb(255,0,17);"/>
        </g>
        <g transform="matrix(1.00467,0,0,1.00467,371.119,108.053)">
            <rect x="188.544" y="131.333" width="19.907" height="19.907" style="fill:rgb(0,0,255);"/>
        </g>
        <g transform="matrix(1.00467,0,0,1.00467,191.119,128.053)">
            <rect x="188.544" y="131.333" width="19.907" height="19.907" style="fill:rgb(255,0,17);"/>
        </g>
        <g transform="matrix(1.00467,0,0,1.00467,371.119,128.053)">
            <rect x="188.544" y="131.333" width="19.907" height="19.907" style="fill:rgb(0,255,237);"/>
        </g>
        <g transform="matrix(1.00467,0,0,1.00467,191.119,148.053)">
            <rect x="188.544" y="131.333" width="19.907" height="19.907" style="fill:rgb(255,0,17);"/>
        </g>
        <g transform="matrix(1.00467,0,0,1.00467,371.119,148.053)">
            <rect x="188.544" y="131.333" width="19.907" height="19.907" style="fill:rgb(245,255,0);"/>
        </g>
        <g transform="matrix(1.00467,0,0,1.00467,191.119,168.053)">
            <rect x="188.544" y="131.333" width="19.907" height="19.907" style="fill:white;"/>
        </g>
        <g transform="matrix(1.00467,0,0,1.00467,371.119,168.053)">
            <rect x="188.544" y="131.333" width="19.907" height="19.907" style="fill:rgb(255,0,17);"/>
        </g>
        <g transform="matrix(1.00467,0,0,1.00467,191.119,188.053)">
            <rect x="188.544" y="131.333" width="19.907" height="19.907"/>
        </g>
        <g transform="matrix(1.00467,0,0,1.00467,371.119,188.053)">
            <rect x="188.544" y="131.333" width="19.907" height="19.907"/>
        </g>
        <g transform="matrix(1.00467,0,0,1.00467,211.119,28.0532)">
            <rect x="188.544" y="131.333" width="19.907" height="19.907"/>
        </g>
        <g transform="matrix(1.00467,0,0,1.00467,391.119,28.0532)">
            <rect x="188.544" y="131.333" width="19.907" height="19.907"/>
        </g>
        <g transform="matrix(1.00467,0,0,1.00467,211.119,48.0532)">
            <rect x="188.544" y="131.333" width="19.907" height="19.907" style="fill:rgb(0,255,237);"/>
        </g>
        <g transform="matrix(1.00467,0,0,1.00467,391.119,48.0532)">
            <rect x="188.544" y="131.333" width="19.907" height="19.907" style="fill:rgb(245,255,0);"/>
        </g>
        <g transform="matrix(1.00467,0,0,1.00467,211.119,68.0532)">
            <rect x="188.544" y="131.333" width="19.907" height="19.907" style="fill:rgb(245,255,0);"/>
        </g>
        <g transform="matrix(1.00467,0,0,1.00467,391.119,68.0532)">
            <rect x="188.544" y="131.333" width="19.907" height="19.907" style="fill:rgb(0,255,237);"/>
        </g>
        <g transform="matrix(1.00467,0,0,1.00467,211.119,88.0532)">
            <rect x="188.544" y="131.333" width="19.907" height="19.907" style="fill:rgb(245,255,0);"/>
        </g>
        <g transform="matrix(1.00467,0,0,1.00467,391.119,88.0532)">
            <rect x="188.544" y="131.333" width="19.907" height="19.907" style="fill:rgb(0,0,255);"/>
        </g>
        <g transform="matrix(1.00467,0,0,1.00467,211.119,108.053)">
            <rect x="188.544" y="131.333" width="19.907" height="19.907" style="fill:rgb(245,255,0);"/>
        </g>
        <g transform="matrix(1.00467,0,0,1.00467,391.119,108.053)">
            <rect x="188.544" y="131.333" width="19.907" height="19.907"/>
        </g>
        <g transform="matrix(1.00467,0,0,1.00467,211.119,128.053)">
            <rect x="188.544" y="131.333" width="19.907" height="19.907" style="fill:rgb(245,255,0);"/>
        </g>
        <g transform="matrix(1.00467,0,0,1.00467,391.119,128.053)">
            <rect x="188.544" y="131.333" width="19.907" height="19.907" style="fill:rgb(0,0,255);"/>
        </g>
        <g transform="matrix(1.00467,0,0,1.00467,211.119,148.053)">
            <rect x="188.544" y="131.333" width="19.907" height="19.907" style="fill:rgb(245,255,0);"/>
        </g>
        <g transform="matrix(1.00467,0,0,1.00467,391.119,148.053)">
            <rect x="188.544" y="131.333" width="19.907" height="19.907" style="fill:rgb(0,255,237);"/>
        </g>
        <g transform="matrix(1.00467,0,0,1.00467,211.119,168.053)">
            <rect x="188.544" y="131.333" width="19.907" height="19.907" style="fill:rgb(0,255,237);"/>
        </g>
        <g transform="matrix(1.00467,0,0,1.00467,391.119,168.053)">
            <rect x="188.544" y="131.333" width="19.907" height="19.907" style="fill:rgb(245,255,0);"/>
        </g>
        <g transform="matrix(1.00467,0,0,1.00467,211.119,188.053)">
            <rect x="188.544" y="131.333" width="19.907" height="19.907"/>
        </g>
        <g transform="matrix(1.00467,0,0,1.00467,391.119,188.053)">
            <rect x="188.544" y="131.333" width="19.907" height="19.907"/>
        </g>
        <g transform="matrix(1.00467,0,0,1.00467,231.119,28.0532)">
            <rect x="188.544" y="131.333" width="19.907" height="19.907"/>
        </g>
        <g transform="matrix(1.00467,0,0,1.00467,411.119,28.0532)">
            <rect x="188.544" y="131.333" width="19.907" height="19.907"/>
        </g>
        <g transform="matrix(1.00467,0,0,1.00467,231.119,48.0532)">
            <rect x="188.544" y="131.333" width="19.907" height="19.907" style="fill:rgb(0,0,255);"/>
        </g>
        <g transform="matrix(1.00467,0,0,1.00467,411.119,48.0532)">
            <rect x="188.544" y="131.333" width="19.907" height="19.907" style="fill:rgb(0,255,237);"/>
        </g>
        <g transform="matrix(1.00467,0,0,1.00467,231.119,68.0532)">
            <rect x="188.544" y="131.333" width="19.907" height="19.907" style="fill:rgb(0,255,237);"/>
        </g>
        <g transform="matrix(1.00467,0,0,1.00467,411.119,68.0532)">
            <rect x="188.544" y="131.333" width="19.907" height="19.907" style="fill:rgb(0,0,255);"/>
        </g>
        <g transform="matrix(1.00467,0,0,1.00467,231.119,88.0532)">
            <rect x="188.544" y="131.333" width="19.907" height="19.907" style="fill:rgb(0,255,237);"/>
        </g>
        <g transform="matrix(1.00467,0,0,1.00467,411.119,88.0532)">
            <rect x="188.544" y="131.333" width="19.907" height="19.907"/>
        </g>
        <g transform="matrix(1.00467,0,0,1.00467,231.119,108.053)">
            <rect x="188.544" y="131.333" width="19.907" height="19.907" style="fill:rgb(0,255,237);"/>
        </g>
        <g transform="matrix(1.00467,0,0,1.00467,231.119,128.053)">
            <rect x="188.544" y="131.333" width="19.907" height="19.907" style="fill:rgb(0,255,237);"/>
        </g>
        <g transform="matrix(1.00467,0,0,1.00467,411.119,128.053)">
            <rect x="188.544" y="131.333" width="19.907" height="19.907"/>
        </g>
        <g transform="matrix(1.00467,0,0,1.00467,231.119,148.053)">
            <rect x="188.544" y="131.333" width="19.907" height="19.907" style="fill:rgb(0,255,237);"/>
        </g>
        <g transform="matrix(1.00467,0,0,1.00467,411.119,148.053)">
            <rect x="188.544" y="131.333" width="19.907" height="19.907" style="fill:rgb(0,0,255);"/>
        </g>
        <g transform="matrix(1.00467,0,0,1.00467,231.119,168.053)">
            <rect x="188.544" y="131.333" width="19.907" height="19.907" style="fill:rgb(0,0,255);"/>
        </g>
        <g transform="matrix(1.00467,0,0,1.00467,411.119,168.053)">
            <rect x="188.544" y="131.333" width="19.907" height="19.907" style="fill:rgb(0,255,237);"/>
        </g>
        <g transform="matrix(1.00467,0,0,1.00467,231.119,188.053)">
            <rect x="188.544" y="131.333" width="19.907" height="19.907"/>
        </g>
        <g transform="matrix(1.00467,0,0,1.00467,411.119,188.053)">
            <rect x="188.544" y="131.333" width="19.907" height="19.907"/>
        </g>
        <g transform="matrix(1.00467,0,0,1.00467,431.119,28.0532)">
            <rect x="188.544" y="131.333" width="19.907" height="19.907"/>
        </g>
        <g transform="matrix(1.00467,0,0,1.00467,251.119,48.0532)">
            <rect x="188.544" y="131.333" width="19.907" height="19.907"/>
        </g>
        <g transform="matrix(1.00467,0,0,1.00467,431.119,48.0532)">
            <rect x="188.544" y="131.333" width="19.907" height="19.907" style="fill:rgb(0,0,255);"/>
        </g>
        <g transform="matrix(1.00467,0,0,1.00467,251.119,68.0532)">
            <rect x="188.544" y="131.333" width="19.907" height="19.907" style="fill:rgb(0,0,255);"/>
        </g>
        <g transform="matrix(1.00467,0,0,1.00467,431.119,68.0532)">
            <rect x="188.544" y="131.333" width="19.907" height="19.907"/>
        </g>
        <g transform="matrix(1.00467,0,0,1.00467,251.119,88.0532)">
            <rect x="188.544" y="131.333" width="19.907" height="19.907" style="fill:rgb(0,0,255);"/>
        </g>
        <g transform="matrix(1.00467,0,0,1.00467,251.119,108.053)">
            <rect x="188.544" y="131.333" width="19.907" height="19.907" style="fill:rgb(0,0,255);"/>
        </g>
        <g transform="matrix(1.00467,0,0,1.00467,251.119,128.053)">
            <rect x="188.544" y="131.333" width="19.907" height="19.907" style="fill:rgb(0,0,255);"/>
        </g>
        <g transform="matrix(1.00467,0,0,1.00467,251.119,148.053)">
            <rect x="188.544" y="131.333" width="19.907" height="19.907" style="fill:rgb(0,0,255);"/>
        </g>
        <g transform="matrix(1.00467,0,0,1.00467,431.119,148.053)">
            <rect x="188.544" y="131.333" width="19.907" height="19.907"/>
        </g>
        <g transform="matrix(1.00467,0,0,1.00467,251.119,168.053)">
            <rect x="188.544" y="131.333" width="19.907" height="19.907"/>
        </g>
        <g transform="matrix(1.00467,0,0,1.00467,431.119,168.053)">
            <rect x="188.544" y="131.333" width="19.907" height="19.907" style="fill:rgb(0,0,255);"/>
        </g>
        <g transform="matrix(1.00467,0,0,1.00467,431.119,188.053)">
            <rect x="188.544" y="131.333" width="19.907" height="19.907"/>
        </g>
    </g>
</svg>
